<?xml version="1.0" encoding="UTF-8"?>
<!-- Created with Inkscape (http://www.inkscape.org/) -->
<svg version="1.1" viewBox="0 0 115.86 73.098" xmlns="http://www.w3.org/2000/svg">
 <g transform="translate(-46.96 -83.081)">
  <g transform="matrix(6.1902 0 0 6.2377 -778.46 -476.29)" fill="none" stroke-width=".19955">
   <g fill="none">
    <path d="m138.13 94.666c0.3225 2.3236 3.4314 0.76244 3.2591-0.45202"/>
    <path d="m139.8 94.666a0.8344 0.8344 0 0 1-0.8344 0.8344 0.8344 0.8344 0 0 1-0.8344-0.8344 0.8344 0.8344 0 0 1 0.8344-0.8344 0.8344 0.8344 0 0 1 0.8344 0.8344z"/>
    <path d="m140 98a5.0249 5.0249 0 0 0 4.0445-7.1442"/>
    <path d="m136.13 94.666c-0.13792 1.4213 1.6961 3.5682 3.8717 3.3344"/>
    <path d="m144.03 90.817a2.9155 2.9155 0 0 0-2.9554 0.0262"/>
    <path d="m136.5 91a2.9155 2.9155 0 0 0-3 0"/>
    <path d="m141.07 90.843c-1.1922-1.4902-3.4833-1.4117-4.5707 0.1566"/>
    <path d="m133.5 91a9.0554 9.0554 0 0 0 9 10.055"/>
    <path d="m141.39 94.214c0.0478-0.79489-0.88418-1.8638-2.3697-1.8313-1.4229 0.03118-2.897 0.77606-2.8894 2.2833"/>
   </g>
   <path d="M 144.4446,98.0554 146,96.5"/>
   <path d="m144.44 99.555v-1.5"/>
   <path d="M 144.4446,99.5554 149,95"/>
   <path d="m144.44 101v-1.4446"/>
   <path d="m147.5 101 2.5-2.5"/>
   <path d="m146 101h1.5"/>
   <path d="m146 101 5.5-5.5"/>
   <path d="m144.5 101h1.5"/>
   <path d="m144.5 101 7-7"/>
   <path d="m144.44 101h0.0554"/>
   <path d="m144.44 101.06v-0.0554"/>
   <path d="m142.5 101.06h1.9446"/>
  </g>
  <g fill-rule="evenodd">
   <path d="m116.69 153.82a0.86145 0.86145 0 0 1-0.86145 0.86144 0.86145 0.86145 0 0 1-0.86145-0.86144 0.86145 0.86145 0 0 1 0.86145-0.86145 0.86145 0.86145 0 0 1 0.86145 0.86145z"/>
   <path d="m126.33 125.54a0.86145 0.86145 0 0 1-0.86145 0.86144 0.86145 0.86145 0 0 1-0.86145-0.86144 0.86145 0.86145 0 0 1 0.86145-0.86145 0.86145 0.86145 0 0 1 0.86145 0.86145z"/>
   <path d="m146.03 115.02a0.86145 0.86145 0 0 1-0.86145 0.86145 0.86145 0.86145 0 0 1-0.86144-0.86145 0.86145 0.86145 0 0 1 0.86144-0.86145 0.86145 0.86145 0 0 1 0.86145 0.86145z"/>
   <path d="m161.32 108.87a0.86145 0.86145 0 0 1-0.86145 0.86144 0.86145 0.86145 0 0 1-0.86145-0.86144 0.86145 0.86145 0 0 1 0.86145-0.86145 0.86145 0.86145 0 0 1 0.86145 0.86145z"/>
   <path d="m161.29 118.37a0.86145 0.86145 0 0 1-0.86145 0.86145 0.86145 0.86145 0 0 1-0.86145-0.86145 0.86145 0.86145 0 0 1 0.86145-0.86145 0.86145 0.86145 0 0 1 0.86145 0.86145z"/>
   <path d="m151.97 137.08a0.86145 0.86145 0 0 1-0.86145 0.86145 0.86145 0.86145 0 0 1-0.86145-0.86145 0.86145 0.86145 0 0 1 0.86145-0.86144 0.86145 0.86145 0 0 1 0.86145 0.86144z"/>
  </g>
 </g>
</svg>
