<?xml version="1.0" encoding="UTF-8" standalone="no"?>
<!-- Created with Inkscape (http://www.inkscape.org/) -->

<svg
   width="115.86482mm"
   height="73.098465mm"
   viewBox="0 0 115.86482 73.098465"
   version="1.1"
   id="svg18081"
   inkscape:version="1.1.2 (0a00cf5339, 2022-02-04)"
   sodipodi:docname="copper-rose.svg"
   xmlns:inkscape="http://www.inkscape.org/namespaces/inkscape"
   xmlns:sodipodi="http://sodipodi.sourceforge.net/DTD/sodipodi-0.dtd"
   xmlns="http://www.w3.org/2000/svg"
   xmlns:svg="http://www.w3.org/2000/svg">
  <sodipodi:namedview
     id="namedview18083"
     pagecolor="#ffffff"
     bordercolor="#666666"
     borderopacity="1.0"
     inkscape:pageshadow="2"
     inkscape:pageopacity="0.0"
     inkscape:pagecheckerboard="0"
     inkscape:document-units="mm"
     showgrid="false"
     inkscape:zoom="0.98622591"
     inkscape:cx="132.82961"
     inkscape:cy="90.243015"
     inkscape:window-width="1920"
     inkscape:window-height="1012"
     inkscape:window-x="0"
     inkscape:window-y="0"
     inkscape:window-maximized="1"
     inkscape:current-layer="layer1" />
  <defs
     id="defs18078" />
  <g
     inkscape:label="Layer 1"
     inkscape:groupmode="layer"
     id="layer1"
     transform="translate(-46.959837,-83.081216)">
    <g
       style="fill:#000000;fill-opacity:1;stroke:#000000;stroke-linecap:round;stroke-linejoin:round;stroke-opacity:1"
       id="g18260"
       transform="matrix(6.1901791,0,0,6.2377442,-778.4608,-476.28648)" />
    <g
       style="fill:none;stroke:#000000;stroke-width:0.2;stroke-linecap:round;stroke-linejoin:round;stroke-opacity:1"
       id="g18280"
       transform="matrix(6.1901791,0,0,6.2377442,-778.4608,-476.28648)">
      <path
         d="m 138.1283,94.6656 c 0.3225,2.323643 3.43139,0.762445 3.25909,-0.45202"
         id="path18262"
         sodipodi:nodetypes="cc" />
      <path
         id="circle18264"
         d="m 139.79711,94.665604 a 0.8344,0.8344 0 0 1 -0.8344,0.8344 0.8344,0.8344 0 0 1 -0.8344,-0.8344 0.8344,0.8344 0 0 1 0.8344,-0.8344 0.8344,0.8344 0 0 1 0.8344,0.8344 z" />
      <path
         d="m 140,98 a 5.0249,5.0249 0 0 0 4.0445,-7.1442"
         id="path18266" />
      <path
         d="M 136.1283,94.6656 C 135.99038,96.086917 137.82442,98.233793 140,98"
         id="path18268"
         sodipodi:nodetypes="cc" />
      <path
         d="m 144.0261,90.8172 a 2.9155,2.9155 0 0 0 -2.9554,0.0262"
         id="path18270" />
      <path
         d="m 136.5,91 a 2.9155,2.9155 0 0 0 -3,0"
         id="path18272" />
      <path
         d="M 141.0707,90.8434 C 139.87848,89.353204 137.58743,89.431699 136.5,91"
         id="path18274"
         style="stroke-width:0.200035;stroke-miterlimit:4;stroke-dasharray:none"
         sodipodi:nodetypes="cc" />
      <path
         d="m 133.5,91 a 9.0554,9.0554 0 0 0 9,10.0554"
         id="path18276" />
      <path
         d="m 141.38739,94.21358 c 0.0478,-0.794891 -0.88418,-1.86385 -2.36969,-1.831294 -1.42291,0.03118 -2.89698,0.776062 -2.8894,2.283314"
         id="path18278"
         sodipodi:nodetypes="csc" />
    </g>
    <g
       style="fill:#000000;fill-opacity:1;stroke:none"
       id="g18288"
       transform="matrix(6.1901791,0,0,6.2377442,-778.4608,-476.28648)" />
    <g
       style="fill:none;stroke:#000000;stroke-width:0.2;stroke-linecap:round;stroke-linejoin:round;stroke-opacity:1"
       id="g18330"
       transform="matrix(6.1901791,0,0,6.2377442,-778.4608,-476.28648)">
      <path
         d="M 144.4446,98.0554 146,96.5"
         id="path18306" />
      <path
         d="m 144.4446,99.5554 v -1.5"
         id="path18308" />
      <path
         d="M 144.4446,99.5554 149,95"
         id="path18310" />
      <path
         d="M 144.4446,101 V 99.5554"
         id="path18312" />
      <path
         d="M 147.5,101 150,98.5"
         id="path18314" />
      <path
         d="m 146,101 h 1.5"
         id="path18316" />
      <path
         d="m 146,101 5.5,-5.5"
         id="path18318" />
      <path
         d="M 144.5,101 H 146"
         id="path18320" />
      <path
         d="m 144.5,101 7,-7"
         id="path18322" />
      <path
         d="M 144.4446,101 H 144.5"
         id="path18324" />
      <path
         d="M 144.4446,101.0554 V 101"
         id="path18326" />
      <path
         d="m 142.5,101.0554 h 1.9446"
         id="path18328" />
    </g>
    <path
       id="path21687"
       style="stroke:#000000;stroke-width:3"
       d="m 116.68839,153.81824 a 0.86144763,0.86144763 0 0 1 -0.86145,0.86144 0.86144763,0.86144763 0 0 1 -0.86145,-0.86144 0.86144763,0.86144763 0 0 1 0.86145,-0.86145 0.86144763,0.86144763 0 0 1 0.86145,0.86145 z" />
    <path
       id="path21687-3"
       style="stroke:#000000;stroke-width:3"
       d="m 126.33306,125.54372 a 0.86144763,0.86144763 0 0 1 -0.86145,0.86144 0.86144763,0.86144763 0 0 1 -0.86145,-0.86144 0.86144763,0.86144763 0 0 1 0.86145,-0.86145 0.86144763,0.86144763 0 0 1 0.86145,0.86145 z" />
    <path
       id="path21687-6"
       style="stroke:#000000;stroke-width:3"
       d="m 146.03416,115.02125 a 0.86144763,0.86144763 0 0 1 -0.86145,0.86145 0.86144763,0.86144763 0 0 1 -0.86144,-0.86145 0.86144763,0.86144763 0 0 1 0.86144,-0.86145 0.86144763,0.86144763 0 0 1 0.86145,0.86145 z" />
    <path
       id="path21687-7"
       style="stroke:#000000;stroke-width:3"
       d="m 161.32466,108.86848 a 0.86144763,0.86144763 0 0 1 -0.86145,0.86144 0.86144763,0.86144763 0 0 1 -0.86145,-0.86144 0.86144763,0.86144763 0 0 1 0.86145,-0.86145 0.86144763,0.86144763 0 0 1 0.86145,0.86145 z" />
    <path
       id="path21687-5"
       style="stroke:#000000;stroke-width:3"
       d="m 161.29207,118.37488 a 0.86144763,0.86144763 0 0 1 -0.86145,0.86145 0.86144763,0.86144763 0 0 1 -0.86145,-0.86145 0.86144763,0.86144763 0 0 1 0.86145,-0.86145 0.86144763,0.86144763 0 0 1 0.86145,0.86145 z" />
    <path
       id="path21687-35"
       style="stroke:#000000;stroke-width:3"
       d="m 151.96527,137.07922 a 0.86144763,0.86144763 0 0 1 -0.86145,0.86145 0.86144763,0.86144763 0 0 1 -0.86145,-0.86145 0.86144763,0.86144763 0 0 1 0.86145,-0.86144 0.86144763,0.86144763 0 0 1 0.86145,0.86144 z" />
  </g>
</svg>
